<?xml version="1.0" encoding="utf-8"?>
<svg version="1.1" id="Layer_1" xmlns="http://www.w3.org/2000/svg" xmlns:xlink="http://www.w3.org/1999/xlink" x="0px" y="0px"
	 width="16px" height="16px" viewBox="0 0 16 16" enable-background="new 0 0 16 16" xml:space="preserve">
<g>
	<path fill="#F05133" d="M14.7,7.3L8.6,1.2c-0.4-0.4-0.9-0.4-1.3,0L6,2.4l1.6,1.6C8,3.9,8.4,4,8.7,4.3C9,4.6,9.1,5.1,9,5.4L10.6,7
		c0.4-0.1,0.8,0,1.1,0.3c0.4,0.4,0.4,1.1,0,1.5c-0.4,0.4-1.1,0.4-1.5,0C9.8,8.5,9.7,8,9.9,7.6L8.4,6.2V10c0.1,0.1,0.2,0.1,0.3,0.2
		c0.4,0.4,0.4,1.1,0,1.5c-0.4,0.4-1.1,0.4-1.5,0c-0.4-0.4-0.4-1.1,0-1.5C7.3,10.1,7.4,10,7.6,10V6.1C7.4,6,7.3,6,7.2,5.9
		C6.9,5.5,6.8,5.1,7,4.7L5.4,3.1L1.2,7.3c-0.4,0.4-0.4,0.9,0,1.3l6.2,6.2c0.4,0.4,0.9,0.4,1.3,0l6.1-6.1C15.1,8.3,15.1,7.7,14.7,7.3
		z"/>
</g>
</svg>
