<?xml version="1.0" encoding="utf-8"?>
<svg version="1.0" id="Layer_1" xmlns="http://www.w3.org/2000/svg" xmlns:xlink="http://www.w3.org/1999/xlink" x="0px" y="0px"
	 width="16px" height="16px" viewBox="0 0 16 16" enable-background="new 0 0 16 16" xml:space="preserve">
	<path fill="none" stroke="#CED0D6" stroke-linecap="round" stroke-linejoin="round" d="M14.3,7.6L8.4,1.7c-0.2-0.2-0.6-0.2-0.8,0
		L1.7,7.6c-0.2,0.2-0.2,0.6,0,0.8l5.9,5.9c0.2,0.2,0.6,0.2,0.8,0l5.9-5.9C14.6,8.2,14.6,7.8,14.3,7.6L14.3,7.6z M6.1,3.3l1.3,1.3
		 M8,6v4"/>
	<circle fill="none" stroke="#CED0D6" stroke-linecap="round" stroke-linejoin="round" cx="8" cy="5.2" r="0.8"/>
	<circle fill="none" stroke="#CED0D6" stroke-linecap="round" stroke-linejoin="round" cx="10.8" cy="8" r="0.8"/>
	<circle fill="none" stroke="#CED0D6" stroke-linecap="round" stroke-linejoin="round" cx="8" cy="10.8" r="0.8"/>
	<path fill="none" stroke="#CED0D6" stroke-linecap="round" stroke-linejoin="round" d="M8.6,5.8l1.6,1.6"/>
</svg>
